# xmcd
#
# Track frame offsets: 
#        150
#        11977
#        22962
#        34953
#        46690
#        58957
#        70872
#        83337
#        94141
#        105788
#        116962
#        128476
#        141003
#        152081
#        164486
#        176269
#        184507
#        195672
#        205914
#        214843
#        226797
#        238588
#        247650
#        259500
#        273946
#        283981
#        294387
#
# Disc length: 4074 seconds
#
# Revision: 0
# Processed by: cddbd v1.5.2PL0 Copyright (c) Steve Scherf et al.
# Submitted via: ExactAudioCopyFreeDBPlugin 1.0
#
DISCID=6e0fe81b
DTITLE=Hank Williams - The Complete Singles As and Bs 1947-55
DYEAR=2016
DGENRE=Country
TTITLE0=You Win Again
TTITLE1=I'll Never Get Out Of This World Alive
TTITLE2=I Could Never Be Ashamed Of You
TTITLE3=Kaw Liga
TTITLE4=Your Cheatin' Heart
TTITLE5=Take These Chains From My Heart
TTITLE6=I Won't Be Home No More
TTITLE7=I Can't Escape From You
TTITLE8=Weary Blues From Waitin'
TTITLE9=You Better Keep It On Your Mind
TTITLE10=Low Down Blues
TTITLE11=How Can You Refuse Him Now?
TTITLE12=A House Of Gold
TTITLE13=I Ain't Got Nothin' But Time
TTITLE14=I'm Satisfied With You
TTITLE15=(I'm Gonna) Sing, Sing, Sing
TTITLE16=The Angel Of Death
TTITLE17=Please Don't Let Me Love You
TTITLE18=Faded Love and Winter Roses
TTITLE19=Message To My Mother
TTITLE20=Mother Is Gone
TTITLE21=Alone and Forsaken
TTITLE22=A Teardrop On A Rose
TTITLE23=At The First Fall Of Snow
TTITLE24=Someday You'll Call My Name
TTITLE25=Thank God
TTITLE26=The Battle Of Armageddon
EXTD=
EXTT0=
EXTT1=
EXTT2=
EXTT3=
EXTT4=
EXTT5=
EXTT6=
EXTT7=
EXTT8=
EXTT9=
EXTT10=
EXTT11=
EXTT12=
EXTT13=
EXTT14=
EXTT15=
EXTT16=
EXTT17=
EXTT18=
EXTT19=
EXTT20=
EXTT21=
EXTT22=
EXTT23=
EXTT24=
EXTT25=
EXTT26=
PLAYORDER=
